<svg width="36" height="53" fill="none" xmlns="http://www.w3.org/2000/svg"><path fill-rule="evenodd" clip-rule="evenodd" d="M.5 7.526C.5 3.37 3.954 0 8.215 0h19.57c4.26 0 7.715 3.37 7.715 7.526v37.448c0 4.157-3.454 7.526-7.715 7.526H8.215C3.955 52.5.5 49.13.5 44.974V7.526zm7.715-2.753c-1.559 0-2.823 1.233-2.823 2.753v37.448c0 1.52 1.264 2.754 2.823 2.754h19.57c1.559 0 2.823-1.233 2.823-2.754V7.526c0-1.52-1.264-2.753-2.823-2.753H8.215z" fill="#EBEBF5"/><path d="M11 2.22C11 .995 12.043 0 13.329 0h9.342C23.957 0 25 .994 25 2.22v2.56C25 6.006 23.957 7 22.671 7H13.33C12.043 7 11 6.006 11 4.78V2.22z" fill="#EBEBF5"/></svg>