<svg width="59" height="49" fill="none" xmlns="http://www.w3.org/2000/svg"><path fill-rule="evenodd" clip-rule="evenodd" d="M50.142 21.784a8.857 8.857 0 0 0-8.857 8.857v8.857a8.857 8.857 0 1 0 17.715 0v-8.857a8.857 8.857 0 0 0-8.858-8.857zm0 4.43a2.214 2.214 0 0 0-2.214 2.214v4.443a2.214 2.214 0 0 0 4.429 0v-4.443a2.214 2.214 0 0 0-2.215-2.215z" fill="#EBEBF5"/><path d="M4.752.72A4.025 4.025 0 0 0 .727 4.743v28a4.025 4.025 0 0 0 4.025 4.025h32.66v-4.55H5.277V5.27h37.45v15.017a12.671 12.671 0 0 1 4.55-2.058V4.744A4.025 4.025 0 0 0 43.252.72h-38.5z" fill="#EBEBF5"/><path d="M47.277 22.253a8.881 8.881 0 0 0-4.55 3.54v6.426h-1.44v4.55h1.965a4.025 4.025 0 0 0 4.025-4.025V22.253zM13.244 41.153h20.657v4.55H13.244z" fill="#EBEBF5"/></svg>