<svg width="64" height="50" fill="none" xmlns="http://www.w3.org/2000/svg"><path d="M32.171 2.764c-2.68-.758-5.373-1.485-8.113-1.994-.002 15.072-.003 30.144 0 45.216l10.26 3.246c.004-7.358.003-14.716.003-22.074-.001-5.314-.002-10.628 0-15.942.021-.718.143-1.485.606-2.062.279-.36.76-.55 1.21-.465.445.093.888.267 1.23.574.515.444.783 1.104.905 1.758.134.653.13 1.318.125 1.982a2314.015 2314.015 0 0 1 0 5.92c-.003 2.955-.005 5.91.011 8.865 1.428.663 2.972 1.168 4.563 1.152a6.176 6.176 0 0 0 3.033-.713c.964-.515 1.758-1.316 2.33-2.24.647-1.048 1.036-2.238 1.255-3.444.264-1.388.267-2.806.222-4.212-.096-2.155-.418-4.346-1.36-6.308a10.238 10.238 0 0 0-2.084-2.916c-.794-.808-1.724-1.47-2.692-2.056-2.161-1.28-4.537-2.137-6.923-2.894a161.82 161.82 0 0 0-4.58-1.393zM14.36 30.83c-1.89.67-3.781 1.34-5.672 2.008-.326.118-.653.232-.98.347-.766.267-1.531.535-2.278.852-1.236.517-2.456 1.098-3.561 1.86-.478.324-.912.741-1.16 1.27a2.19 2.19 0 0 0-.066 1.71c.246.648.732 1.174 1.274 1.593.986.747 2.16 1.2 3.34 1.541a33.557 33.557 0 0 0 11.184 1.68c1.881-.03 3.754-.254 5.606-.586.02-.198.017-.398.016-.598-.001-.096-.002-.192 0-.288-.002-.551-.001-1.102 0-1.654 0-.926.001-1.851-.005-2.776-1.128.402-2.254.809-3.38 1.216l-1.137.41c-.58.217-1.164.421-1.772.54-.898.198-1.82.267-2.737.281-.823-.037-1.668-.082-2.44-.395-.279-.12-.58-.281-.7-.575-.096-.25.047-.508.222-.682.377-.372.878-.58 1.366-.764l4.035-1.44c2.176-.779 4.352-1.557 6.53-2.327a3.76 3.76 0 0 0 .018-.506v-2.361c0-1.027.001-2.053-.003-3.08-2.568.904-5.134 1.814-7.7 2.724z" fill="#EBEBF5"/><path d="M47.328 30.68c-.924.032-1.85.064-2.769.17-2.818.323-5.617.892-8.296 1.83l-.001 3.95v2.194c2.056-.715 4.11-1.437 6.163-2.16 1.647-.578 3.293-1.157 4.942-1.733 1.232-.414 2.54-.573 3.835-.582.828.023 1.676.083 2.454.39.274.119.573.277.698.564.12.328-.12.632-.364.823-.47.375-1.041.572-1.607.768-.15.052-.301.104-.45.16l-.81.288c-4.93 1.753-9.857 3.506-14.786 5.254-.08.015-.078.092-.075.162 0 .024.001.048-.001.067.002 1.112.001 2.225.001 3.337v2.386c5.35-1.918 10.7-3.833 16.051-5.748l4.45-1.593c.277-.102.557-.2.836-.3.848-.298 1.696-.597 2.498-1.005 1.003-.507 2.002-1.088 2.758-1.932.398-.45.674-1.036.643-1.647-.007-.75-.47-1.406-1.005-1.893-.892-.8-2.008-1.292-3.123-1.698-.29-.091-.575-.194-.861-.296-.331-.118-.663-.236-1-.339-3.199-1-6.56-1.415-9.904-1.427l-.277.01z" fill="#EBEBF5"/></svg>