<svg width="50" height="50" fill="none" xmlns="http://www.w3.org/2000/svg"><path fill-rule="evenodd" clip-rule="evenodd" d="M29.082 25.012c0-13.405.03-24.397.071-24.427.03-.04 2.059-.071 4.492-.071 3.53 0 4.624.03 5.334.152 5.293.912 9.319 4.897 10.322 10.18.142.74.163 2.474.163 14.105 0 12.425.014 13.886-.377 15.23-.068.231-.148.46-.242.74a15.075 15.075 0 0 1-.76 1.775c-1.978 3.721-5.608 6.226-9.725 6.692-.973.102-8.842.142-9.115.04-.152-.06-.163-2.301-.163-24.416zm14.308.821a4.961 4.961 0 0 0-3.407-3.163c-2.535-.66-5.171.8-5.932 3.285-.254.79-.264 2.089-.04 2.86.74 2.514 3.437 4.045 5.972 3.386 1.561-.416 2.778-1.541 3.397-3.143.334-.872.344-2.272.01-3.225z" fill="#EBEBF5"/><path d="M11.855 10.666c-.64.122-1.613.608-2.13 1.065-1.064.922-1.592 2.23-1.51 3.772.04.8.09 1.014.415 1.663a4.617 4.617 0 0 0 2.18 2.19c.68.334.852.375 1.734.405.801.03 1.085 0 1.623-.182 2.2-.74 3.528-2.88 3.153-5.07-.436-2.606-2.91-4.35-5.465-3.843z" fill="#EBEBF5"/><path fill-rule="evenodd" clip-rule="evenodd" d="M10.983.677C6.105 1.549 2.18 5.159.944 9.904.498 11.618.467 12.622.518 25.915c.03 12.209.04 12.493.243 13.436 1.126 5.08 4.736 8.7 9.867 9.896.669.153 1.52.183 7.006.213 5.679.04 6.267.03 6.419-.121.152-.152.162-2.11.162-24.296 0-16.447-.03-24.194-.101-24.336-.102-.182-.274-.192-6.216-.182-4.827.01-6.277.04-6.915.152zm9.176 44.88-4.127-.051c-3.802-.04-4.208-.061-4.968-.254-3.265-.841-5.689-3.356-6.368-6.631-.223-1.024-.223-26.253-.01-27.257.608-2.849 2.585-5.211 5.252-6.276 1.339-.538 1.957-.598 6.297-.609l3.924-.01v41.087z" fill="#EBEBF5"/></svg>