<svg width="50" height="50" fill="none" xmlns="http://www.w3.org/2000/svg"><path d="M7.788 7.566c.03-.024 2.298-1.75 10.482 6.395.023.02.046.047.046.08 0 .028-.02.052-.036.072-4.933 5.868-14.48 19.865-12.612 25.64.018.046.015.1-.029.126-.046.023-.098 0-.131-.041A24.391 24.391 0 0 1 .5 24.998a24.417 24.417 0 0 1 7.288-17.43v-.002zM42.215 7.566l-.023-.021.02.02c.028.026-2.172-1.875-10.472 6.383-.025.021-.046.047-.046.083 0 .026.018.049.036.07 4.93 5.87 14.47 19.877 12.602 25.652-.015.046-.013.1.029.126.046.023.1 0 .131-.041a24.391 24.391 0 0 0 5.008-14.84 24.413 24.413 0 0 0-7.285-17.43v-.002zM37.763 4.086C34.013 1.855 29.945.5 25.001.5c-4.93 0-9.05 1.355-12.8 3.609a.098.098 0 0 0-.042.12c.021.047.073.055.119.045 4.196-1.075 10.86 2.418 12.67 3.456.015.01.03.021.053.021.02 0 .036-.01.052-.02.68-.41 7.89-4.508 12.633-3.483.049.013.1.002.118-.041.018-.047.006-.098-.04-.121zM25.001 20.148c.029 0 .06.024.078.04 7.331 5.573 19.88 19.354 16.049 23.251l.005-.005-.003.005h-.005A24.4 24.4 0 0 1 25 49.5a24.413 24.413 0 0 1-16.13-6.06c-3.822-3.898 8.723-17.679 16.047-23.253.02-.015.054-.039.085-.039z" fill="#EBEBF5"/></svg>