<svg width="50" height="50" viewBox="0 0 50 50" fill="none" xmlns="http://www.w3.org/2000/svg">
<path d="M50 0H0V50H50V0Z" fill="#6E4AFF"/>
<path d="M32.932 23.0066V27.0003C32.932 27.0003 32.925 27.4017 32.5305 27.4017H27.9209V30.987C27.9209 30.987 27.9209 31.3884 27.5195 31.3884H22.9098V34.9737C22.9098 35.1952 22.7229 35.3751 22.5084 35.3751H17.4904C17.2689 35.3751 17.089 35.1882 17.089 34.9737V30.98C17.089 30.98 17.1028 30.5786 17.4904 30.5786H22.1V27.4017H17.4904C17.4904 27.4017 17.1305 27.4155 17.089 27.0003V23.0066C17.089 23.0066 17.089 22.6052 17.4904 22.6052C17.8918 22.6052 22.1 22.6052 22.1 22.6052V19.4075H17.4765C17.089 19.4075 17.082 19.013 17.082 19.013V15.0194C17.082 14.6248 17.4835 14.6179 17.4835 14.6179H22.4945C22.8891 14.6179 22.896 15.0194 22.896 15.0194V18.6046H27.5056C27.5056 18.6046 27.9071 18.6323 27.9071 19.0061V22.5913H32.5167C32.5236 22.6052 32.932 22.6121 32.932 23.0066ZM27.1042 26.5919V23.415H22.896V26.5919H27.1042Z" fill="#F5F5FA"/>
</svg>