<svg width="16" height="19" fill="none" xmlns="http://www.w3.org/2000/svg"><path d="M8.387 1.653C9.612.008 11.315 0 11.315 0s.253 1.547-.964 3.037c-1.3 1.591-2.776 1.331-2.776 1.331s-.278-1.251.812-2.715zM7.73 5.452c.63 0 1.8-.883 3.323-.883 2.62 0 3.651 1.9 3.651 1.9s-2.016 1.05-2.016 3.6c0 2.876 2.512 3.867 2.512 3.867s-1.756 5.036-4.128 5.036c-1.089 0-1.936-.748-3.084-.748-1.17 0-2.33.776-3.086.776C2.736 19 0 14.223 0 10.382c0-3.778 2.316-5.76 4.488-5.76 1.412 0 2.508.83 3.242.83z" fill="#EBEBF5"/></svg>