<svg width="20" height="20" viewBox="0 0 20 20" fill="none" xmlns="http://www.w3.org/2000/svg">
<path d="M19.9895 10.1897C19.9895 9.37036 19.9214 8.77242 19.7742 8.15234H10.1992V11.8507H15.8195C15.7062 12.7697 15.0943 14.1539 13.7346 15.0839L13.7155 15.2078L16.7429 17.4996L16.9527 17.5201C18.879 15.7816 19.9895 13.2237 19.9895 10.1897Z" fill="#4285F4"/>
<path d="M10.1983 19.9313C12.9517 19.9313 15.2633 19.0454 16.9517 17.5174L13.7336 15.0812C12.8724 15.6681 11.7166 16.0778 10.1983 16.0778C7.50143 16.0778 5.21253 14.3394 4.3966 11.9365L4.277 11.9464L1.12906 14.3272L1.08789 14.439C2.7649 17.6945 6.20961 19.9313 10.1983 19.9313Z" fill="#34A853"/>
<path d="M4.39845 11.9373C4.18316 11.3172 4.05857 10.6528 4.05857 9.96632C4.05857 9.27976 4.18316 8.61541 4.38713 7.99533L4.38142 7.86327L1.19402 5.44434L1.08973 5.49281C0.398553 6.84373 0.00195312 8.36075 0.00195312 9.96632C0.00195312 11.5719 0.398553 13.0888 1.08973 14.4398L4.39845 11.9373Z" fill="#FBBC05"/>
<path d="M10.1983 3.85336C12.1133 3.85336 13.405 4.66168 14.1416 5.33718L17.0197 2.59107C15.2521 0.985496 12.9518 0 10.1983 0C6.20964 0 2.76491 2.23672 1.08789 5.49214L4.3853 7.99466C5.21256 5.59183 7.50147 3.85336 10.1983 3.85336Z" fill="#EB4335"/>
</svg>
