<svg width="20" height="20" fill="none" xmlns="http://www.w3.org/2000/svg"><path d="M19.99 10.19c0-.82-.069-1.418-.216-2.038H10.2v3.699h5.62c-.113.919-.725 2.303-2.084 3.233l-.02.124 3.028 2.292.21.02c1.926-1.738 3.037-4.296 3.037-7.33z" fill="#4285F4"/><path d="M10.198 19.931c2.754 0 5.065-.886 6.754-2.414l-3.218-2.436c-.862.587-2.017.997-3.536.997a6.126 6.126 0 0 1-5.801-4.141l-.12.01-3.148 2.38-.041.112c1.677 3.256 5.122 5.492 9.11 5.492z" fill="#34A853"/><path d="M4.398 11.937a6.009 6.009 0 0 1-.34-1.97c0-.687.125-1.352.33-1.972l-.007-.132-3.187-2.419-.104.049A9.79 9.79 0 0 0 .002 9.966 9.79 9.79 0 0 0 1.09 14.44l3.308-2.503z" fill="#FBBC05"/><path d="M10.198 3.853c1.915 0 3.207.809 3.944 1.484l2.878-2.746C15.252.985 12.952 0 10.198 0 6.21 0 2.765 2.237 1.088 5.492l3.297 2.503a6.152 6.152 0 0 1 5.813-4.142z" fill="#EB4335"/></svg>