<svg width="19" height="22" fill="none" xmlns="http://www.w3.org/2000/svg"><path d="M15.858 1.659C14.841.498 13.002 0 10.648 0h-6.83a.978.978 0 0 0-.967.826L.007 18.88a.587.587 0 0 0 .58.678h4.217l1.059-6.724-.033.21a.975.975 0 0 1 .962-.825h2.004c3.936 0 7.019-1.6 7.92-6.23.026-.137.049-.27.069-.4-.114-.06-.114-.06 0 0 .268-1.712-.002-2.877-.927-3.931z" fill="#27346A"/><path d="M7.476 4.973a.856.856 0 0 1 .37-.083H13.2c.634 0 1.226.041 1.766.128a7.41 7.41 0 0 1 1.079.258c.265.089.513.192.74.313.268-1.711-.002-2.876-.927-3.93C14.84.498 13.002 0 10.648 0H3.817c-.481 0-.89.35-.966.826L.007 18.88a.586.586 0 0 0 .58.679h4.217L7 5.612a.857.857 0 0 1 .475-.639z" fill="#27346A"/><path d="M16.715 5.99c-.9 4.629-3.983 6.23-7.92 6.23H6.792c-.48 0-.887.35-.961.826l-1.318 8.36A.514.514 0 0 0 5.02 22h3.554a.855.855 0 0 0 .845-.722l.034-.182.67-4.25.044-.235a.856.856 0 0 1 .844-.722h.532c3.443 0 6.14-1.4 6.928-5.45.329-1.693.158-3.106-.712-4.098a3.397 3.397 0 0 0-.973-.752c-.02.131-.043.264-.07.4z" fill="#2790C3"/><path d="M15.842 5.212a6.567 6.567 0 0 0-.876-.194 11.1 11.1 0 0 0-1.766-.13H7.846A.853.853 0 0 0 7 5.612l-1.138 7.224-.033.21a.974.974 0 0 1 .962-.826h2.004c3.937 0 7.02-1.6 7.92-6.23.026-.137.049-.27.07-.4a4.86 4.86 0 0 0-.944-.377" fill="#1F264F"/></svg>