<svg width="23" height="19" viewBox="0 0 23 19" fill="none" xmlns="http://www.w3.org/2000/svg">
<path d="M13.8125 5.3125C13.8125 8.24651 11.434 10.625 8.5 10.625C5.56599 10.625 3.1875 8.24651 3.1875 5.3125C3.1875 2.37849 5.56599 0 8.5 0C11.434 0 13.8125 2.37849 13.8125 5.3125Z" fill="#6E4AFF"/>
<path d="M3.1428 10.2898C1.22811 11.8078 0 14.1542 0 16.7875C0 17.4917 0.570837 18.0625 1.275 18.0625H15.725C16.4292 18.0625 17 17.4917 17 16.7875C17 14.1542 15.7719 11.8078 13.8572 10.2898C12.522 11.7263 10.6159 12.625 8.5 12.625C6.38407 12.625 4.47804 11.7263 3.1428 10.2898Z" fill="#6E4AFF"/>
<path d="M4.90176 9.2209C5.84813 10.0926 7.11189 10.625 8.5 10.625C9.88811 10.625 11.1519 10.0926 12.0982 9.2209C11.0645 8.75765 9.9186 8.5 8.7125 8.5H8.2875C7.0814 8.5 5.93547 8.75765 4.90176 9.2209Z" fill="#6E4AFF"/>
<path d="M16 7.50586H23" stroke="#6E4AFF" stroke-width="2"/>
<path d="M19.5 11V4" stroke="#6E4AFF" stroke-width="2"/>
</svg>
