<svg width="48" height="63" fill="none" xmlns="http://www.w3.org/2000/svg"><path d="M47.928 25.076V37.01s-.029 1.21-1.221 1.21H32.79v10.713s0 1.21-1.222 1.21H17.651v10.728c0 .658-.561 1.21-1.221 1.21H1.293a1.233 1.233 0 0 1-1.222-1.21V48.933s.034-1.21 1.222-1.21H15.21v-9.505H1.293S.2 38.251.071 37.008V25.074s.004-1.21 1.222-1.21H15.21v-9.55H1.253c-1.175 0-1.182-1.172-1.182-1.172V1.211C.071.039 1.293 0 1.293 0h15.139c1.182 0 1.222 1.21 1.222 1.21v10.72H31.57s1.222.082 1.222 1.21v10.727h13.917c-.002-.002 1.22.038 1.22 1.209zm-17.58 10.713v-9.504H17.651v9.504h12.697z" fill="#F6F7FB"/></svg>