<svg width="19" height="22" viewBox="0 0 19 22" fill="none" xmlns="http://www.w3.org/2000/svg">
<path d="M15.8585 1.65887C14.8408 0.497785 13.0012 0 10.6477 0H3.81744C3.58459 8.63024e-06 3.35938 0.0831621 3.1823 0.23451C3.00522 0.385859 2.88789 0.595474 2.85139 0.82567L0.00738026 18.8807C-0.0491494 19.2367 0.226268 19.5591 0.586773 19.5591H4.80356L5.86258 12.8354L5.82972 13.0459C5.90516 12.5707 6.31124 12.2201 6.79211 12.2201H8.79592C12.7324 12.2201 15.8147 10.6197 16.7151 5.98987C16.7418 5.85294 16.765 5.71967 16.785 5.58947C16.6714 5.52923 16.6714 5.52923 16.785 5.58947C17.0531 3.87825 16.7832 2.71344 15.8585 1.65887Z" fill="#27346A"/>
<path d="M7.47609 4.97303C7.59137 4.91808 7.71746 4.88961 7.84514 4.88969H13.2C13.8341 4.88969 14.4255 4.93099 14.966 5.01806C15.1172 5.0422 15.2677 5.07102 15.4171 5.10448C15.629 5.15126 15.8383 5.20853 16.0445 5.27606C16.3102 5.36488 16.5576 5.46833 16.7851 5.58947C17.0531 3.87759 16.7832 2.71344 15.8585 1.65887C14.8402 0.497785 13.0012 0 10.6477 0H3.81685C3.33591 0 2.92677 0.350475 2.85139 0.82567L0.00738066 18.88C-0.049149 19.2366 0.226269 19.5586 0.586189 19.5586H4.80357L7.0007 5.61198C7.0223 5.4749 7.07686 5.34512 7.15967 5.23382C7.24248 5.12252 7.35107 5.03302 7.47609 4.97303Z" fill="#27346A"/>
<path d="M16.7151 5.98976C15.8147 10.6189 12.7324 12.22 8.79589 12.22H6.79149C6.31063 12.22 5.90447 12.5706 5.82976 13.0458L4.51227 21.406C4.46304 21.7175 4.70377 21.9999 5.0187 21.9999H8.57335C8.77697 21.9998 8.97389 21.9271 9.1287 21.7946C9.2835 21.6622 9.38604 21.4789 9.41786 21.2776L9.45248 21.0963L10.1224 16.8461L10.1656 16.6112C10.1974 16.4099 10.2999 16.2266 10.4547 16.0942C10.6095 15.9618 10.8064 15.889 11.01 15.8889H11.542C14.9854 15.8889 17.6817 14.4887 18.4696 10.4388C18.7985 8.7464 18.6283 7.33339 17.7583 6.34089C17.4944 6.04028 17.1667 5.79201 16.785 5.58936C16.7643 5.72022 16.7419 5.85283 16.7151 5.98976Z" fill="#2790C3"/>
<path d="M15.8425 5.21246C15.7021 5.17143 15.5604 5.1351 15.4176 5.10354C15.268 5.07063 15.1176 5.042 14.9664 5.01771C14.4254 4.93005 13.8344 4.88867 13.1997 4.88867H7.8455C7.71772 4.88838 7.59154 4.9171 7.47645 4.97267C7.35129 5.03248 7.24258 5.12192 7.15973 5.23326C7.07688 5.34459 7.02239 5.47447 7.00099 5.61163L5.86294 12.8345L5.83008 13.045C5.90494 12.5697 6.31102 12.2192 6.79196 12.2192H8.79635C12.7328 12.2192 15.8151 10.6187 16.7155 5.98893C16.7423 5.852 16.7648 5.71932 16.7854 5.58853C16.5574 5.46805 16.3106 5.36394 16.0449 5.2757C15.9778 5.25345 15.9103 5.23237 15.8425 5.21246" fill="#1F264F"/>
</svg>
