<svg width="23" height="19" fill="none" xmlns="http://www.w3.org/2000/svg"><path d="M13.813 5.313a5.313 5.313 0 1 1-10.626 0 5.313 5.313 0 0 1 10.626 0z" fill="#6E4AFF"/><path d="M3.143 10.29A8.272 8.272 0 0 0 0 16.788c0 .704.57 1.274 1.275 1.274h14.45c.704 0 1.275-.57 1.275-1.274a8.272 8.272 0 0 0-3.143-6.498A7.293 7.293 0 0 1 8.5 12.625a7.293 7.293 0 0 1-5.357-2.335z" fill="#6E4AFF"/><path d="M4.902 9.22A5.294 5.294 0 0 0 8.5 10.626a5.293 5.293 0 0 0 3.598-1.404A8.258 8.258 0 0 0 8.712 8.5h-.425a8.258 8.258 0 0 0-3.385.72z" fill="#6E4AFF"/><path d="M16 7.506h7M19.5 11V4" stroke="#6E4AFF" stroke-width="2"/></svg>